<?xml version="1.0" encoding="utf-8"?>
<?xml-stylesheet type="text/xsl" href="rss1.xsl"?>
<rss version="2.0" xmlns:atom="http://www.w3.org/2005/Atom" xmlns:content="http://purl.org/rss/1.0/modules/content/" xmlns:dc="http://purl.org/dc/elements/1.1/" xmlns:media="http://search.yahoo.com/mrss/">
<channel>
 <title>Getty</title>
 <link>http://www.gettyimg.com/</link>
 <atom:link href="http://www.gettyimg.com/" rel="self" type="application/rss+xml" />

 
                <item>
                <title><![CDATA[【Unreleased/Unofficial (lossless)】Stray Kids – Social Path [WEB WAV PCM Little/Signed 24-Bit/96.0 kHz + Sony DSEE HX Enhanced Audio]]]></title>
                <link><![CDATA[https://sharemania.us/threads/stray-kids-%E2%80%93-social-path-web-wav-pcm-little-signed-24-bit-96-0-khz-sony-dsee-hx-enhanced-audio.227551/]]></link>
                <description><![CDATA[<article>
<blockquote class="messageText SelectQuoteContainer ugc baseHtml">
<img src="https://i.imgur.com/XXG2GV4.jpg" class="bbCodeImage LbImage" alt="[​IMG]" data-url="https://i.imgur.com/XXG2GV4.jpg" style=""><br>
<img src="https://i.imgur.com/W16Zy5e.png" class="bbCodeImage LbImage" alt="[​IMG]" data-url="https://i.imgur.com/W16Zy5e.png" style=""><br>
<span style="font-family: 'Book Antiqua'"><span style="font-size: 15px"><b>Artist</b>: Stray Kids (스트레이 키즈)<br>
<b>Album</b>: Social Path<br>
<b>Release</b>: 2023/08/30<br>
<b>Type</b>: Digital Single<br>
<b>Format</b>: Waveform Audio File Format<br>
<b>Quality</b>: High Resolution, Lossless Audio - Studio Quality<br>
<b>Sample Rate</b>: 24-Bit/96.000 kHz - Stereo<br>
<b>Source</b>: Recorded from <span style="color: #0059b3">Music Center for PC</span><br>
<br>
<b>TRACK LIST</b><br>
1. Social Path (feat. LiSA)<br>
<br>
<b>MORE INFORMATION</b><br>
1 Disc - 1 Track.<br>
Artwork - JPEG 3320x3320.<br>
SoX Spectrogram - <a href="https://i.imgur.com/kXeae1E.png" target="_blank" class="externalLink" rel="nofollow">Preview</a>.<br>
MediaInfo - <a href="https://drive.google.com/file/d/1Kbs-8xW2RgfTO3oxpUSFcxbN1Ugo-A7H/view" target="_blank" class="externalLink" rel="nofollow">Preview</a>.<br>
Lossless Audio Checker - <a href="https://i.imgur.com/Y0Hgrg2.png" target="_blank" class="externalLink" rel="nofollow">Preview</a>.<br>
<br>
<b><span style="color: #ff0000">WARNING</span></b>: This release has been enhanced from 16-Bit/44.1 kHz lossless file using Sony's DSEE (<b>Digital Sound Enhancement Engine</b>) upscaling technology. To avoid confusion, do not distribute this file on other sites as if it were the original, it is just an enhanced file for a better experience.<br>
<br>
<b>DOWNLOAD</b><br>
<div class="bbCodeBlock bbCodeVfcHH HiddenContent">
<div class="attribution type">Hidden Content:</div>
<blockquote>You must reply before you can see the hidden data contained here.</blockquote>
</div></span></span>
<div class="messageTextEndMarker">&nbsp;</div>
</blockquote>
</article>]]></description>
                <author><![CDATA[samymskzs]]></author>
                </item>

                
                <item>
                <title><![CDATA[【Requests】[REQ VID] - Restart - Luau MTV - 2012-02-16]]></title>
                <link><![CDATA[https://sharemania.us/threads/restart-luau-mtv-2012-02-16.227548/]]></link>
                <description><![CDATA[<article>
<blockquote class="messageText SelectQuoteContainer ugc baseHtml">
I'm searching for the entire concert without cuts in any quality.<br>
<br>
Estou procurando pelo show inteiro sem cortes em qualquer qualidade.
<div class="messageTextEndMarker">&nbsp;</div>
</blockquote>
</article>]]></description>
                <author><![CDATA[augustodoidin]]></author>
                </item>

                
                <item>
                <title><![CDATA[【MASTER &amp; MASTER RIP】MASTER - IVE - I AM [Master Clean 4K]]]></title>
                <link><![CDATA[https://sharemania.us/threads/ive-i-am-master-clean-4k.227549/]]></link>
                <description><![CDATA[<article>
<blockquote class="messageText SelectQuoteContainer ugc baseHtml">
<div style="text-align: center"><img src="https://i.ibb.co/nkSkHyN/IVE-I-AM-Master-Clean-4-K-mp4.png" class="bbCodeImage LbImage" alt="[​IMG]" data-url="https://i.ibb.co/nkSkHyN/IVE-I-AM-Master-Clean-4-K-mp4.png" style=""> <br>
<br>
<div class="ToggleTriggerAnchor bbCodeSpoilerContainer">
<button type="button" class="button bbCodeSpoilerButton ToggleTrigger Tooltip JsOnly" data-target="> .SpoilerTarget"><span>Spoiler: <span class="SpoilerTitle">Mediainfo</span></span></button>
<div class="SpoilerTarget bbCodeSpoilerText"><b>General</b><br>
Complete name : IVE - I AM [Master Clean 4K].mp4<br>
Format : MPEG-4<br>
Format profile : Base Media / Version 2<br>
Codec ID : mp42 (mp42/mp41)<br>
File size : 2.59 GiB<br>
Duration : 3 min 4 s<br>
Overall bit rate mode : Variable<br>
Overall bit rate : 120 Mb/s<br>
Encoded date : UTC 2023-04-07 17:36:01<br>
Tagged date : UTC 2023-04-07 17:37:13<br>
TIM : 00:00:00:00<br>
TSC : 24000<br>
TSZ : 1001<br>
<br>
<b>Video</b><br>
ID : 1<br>
Format : AVC<br>
Format/Info : Advanced Video Codec<br>
Format profile : Main@L5.1<br>
Format settings : CABAC / 4 Ref Frames<br>
Format settings, CABAC : Yes<br>
Format settings, Reference frames : 4 frames<br>
Codec ID : avc1<br>
Codec ID/Info : Advanced Video Coding<br>
Duration : 3 min 4 s<br>
Bit rate : 120 Mb/s<br>
Width : 3 840 pixels<br>
Height : 2 160 pixels<br>
Display aspect ratio : 16:9<br>
Frame rate mode : Constant<br>
Frame rate : 23.976 (24000/1001) FPS<br>
Color space : YUV<br>
Chroma subsampling : 4:2:0<br>
Bit depth : 8 bits<br>
Scan type : Progressive<br>
Bits/(Pixel*Frame) : 0.604<br>
Stream size : 2.58 GiB (100%)<br>
Language : English<br>
Encoded date : UTC 2023-04-07 17:36:01<br>
Tagged date : UTC 2023-04-07 17:36:01<br>
Color range : Limited<br>
Color primaries : BT.709<br>
Transfer characteristics : BT.709<br>
Matrix coefficients : BT.709<br>
Codec configuration box : avcC<br>
<br>
<b>Audio</b><br>
ID : 2<br>
Format : AAC LC<br>
Format/Info : Advanced Audio Codec Low Complexity<br>
Codec ID : mp4a-40-2<br>
Duration : 3 min 4 s<br>
Source duration : 3 min 4 s<br>
Bit rate mode : Variable<br>
Bit rate : 317 kb/s<br>
Maximum bit rate : 461 kb/s<br>
Channel(s) : 2 channels<br>
Channel layout : L R<br>
Sampling rate : 48.0 kHz<br>
Frame rate : 46.875 FPS (1024 SPF)<br>
Compression mode : Lossy<br>
Stream size : 6.98 MiB (0%)<br>
Source stream size : 6.98 MiB (0%)<br>
Language : English<br>
Encoded date : UTC 2023-04-07 17:36:01<br>
Tagged date : UTC 2023-04-07 17:36:01</div>
</div><br>
<div class="bbCodeBlock bbCodeVfcHH HiddenContent">
<div class="attribution type">Hidden Content:</div>
<blockquote>You must reply before you can see the hidden data contained here.</blockquote>
</div></div>
<div class="messageTextEndMarker">&nbsp;</div>
</blockquote>
</article>]]></description>
                <author><![CDATA[von_3649]]></author>
                </item>

                
                <item>
                <title><![CDATA[【Requests】[REQ CAP] - URGENT: The Town Festival]]></title>
                <link><![CDATA[https://sharemania.us/threads/urgent-the-town-festival.227547/]]></link>
                <description><![CDATA[<article>
<blockquote class="messageText SelectQuoteContainer ugc baseHtml">
Hi guys! Can someone download those shows in 1080p for me? Even in 720p would be good.<br>
I think they will be available live on <a href="https://globoplay.globo.com/" target="_blank" class="externalLink" rel="nofollow">globoplay</a>.<br>
<br>
At the moment I don't know if Factory Stage is going to be transmitted.<br>
<br>
<span style="color: #0059b3">September 2nd</span><br>
- Factory Stage<br>
<b>Urias 4:00 pm</b><br>
<br>
- Skyline Stage (Multishow)<br>
Iggy Azalea 6:15 pm<br>
<b>Demi Lovato 8:25 pm</b><br>
<br>
<span style="color: #0059b3">September 3rd</span><br>
- Factory Stage<br>
<b>Lia Clark 4:00 pm</b><br>
<br>
- Skyline Stage (Multishow)<br>
<b>Luísa Sonza 4:05 pm</b><br>
Bebe Rexha 8:25 pm<br>
<br>
<span style="color: #0059b3">September 7th</span><br>
- Skyline Stage (Multishow)<br>
Ludmilla 4:05 pm<br>
<br>
<span style="color: #0059b3">September 9th</span><br>
- Factory Stage<br>
Grag Queen 14:00 pm<br>
<br>
<span style="color: #0059b3">September 10th</span><br>
- Skyline Stage (Multishow)<br>
Iza 4:05 pm<br>
<br>
- The One Stage (Multishow)<br>
<b>Marina Sena 3:00 pm<br>
Pabllo Vittar 5:10 pm<br>
Gloria Groove 7:20 pm</b><br>
Jão 9:45 pm
<div class="messageTextEndMarker">&nbsp;</div>
</blockquote>
</article>]]></description>
                <author><![CDATA[vinicixsqs]]></author>
                </item>

                
                <item>
                <title><![CDATA[【MASTER &amp; MASTER RIP】MASTER - (G)I-DLE - Queencard [Master Clean 4K]]]></title>
                <link><![CDATA[https://sharemania.us/threads/g-i-dle-queencard-master-clean-4k.227550/]]></link>
                <description><![CDATA[<article>
<blockquote class="messageText SelectQuoteContainer ugc baseHtml">
<div style="text-align: center"><img src="https://i.ibb.co/j8qXGmw/G-I-DLE-Queencard-Master-Clean-4-K-mp4.png" class="bbCodeImage LbImage" alt="[​IMG]" data-url="https://i.ibb.co/j8qXGmw/G-I-DLE-Queencard-Master-Clean-4-K-mp4.png" style=""> <br>
<br>
<div class="ToggleTriggerAnchor bbCodeSpoilerContainer">
<button type="button" class="button bbCodeSpoilerButton ToggleTrigger Tooltip JsOnly" data-target="> .SpoilerTarget"><span>Spoiler: <span class="SpoilerTitle">Mediainfo</span></span></button>
<div class="SpoilerTarget bbCodeSpoilerText"><b>General</b><br>
Complete name : (G)I-DLE - Queencard [Master Clean 4K ].mp4<br>
Format : MPEG-4<br>
Format profile : Base Media / Version 2<br>
Codec ID : mp42 (mp42/mp41)<br>
File size : 2.96 GiB<br>
Duration : 3 min 30 s<br>
Overall bit rate mode : Variable<br>
Overall bit rate : 121 Mb/s<br>
Encoded date : UTC 2023-05-15 06:55:37<br>
Tagged date : UTC 2023-05-15 06:56:54<br>
TIM : 00:00:00:00<br>
TSC : 24000<br>
TSZ : 1001<br>
<br>
<b>Video</b><br>
ID : 1<br>
Format : AVC<br>
Format/Info : Advanced Video Codec<br>
Format profile : Main@L5.1<br>
Format settings : CABAC / 4 Ref Frames<br>
Format settings, CABAC : Yes<br>
Format settings, Reference frames : 4 frames<br>
Codec ID : avc1<br>
Codec ID/Info : Advanced Video Coding<br>
Duration : 3 min 30 s<br>
Bit rate : 121 Mb/s<br>
Width : 3 840 pixels<br>
Height : 2 160 pixels<br>
Display aspect ratio : 16:9<br>
Frame rate mode : Constant<br>
Frame rate : 23.976 (24000/1001) FPS<br>
Color space : YUV<br>
Chroma subsampling : 4:2:0<br>
Bit depth : 8 bits<br>
Scan type : Progressive<br>
Bits/(Pixel*Frame) : 0.607<br>
Stream size : 2.95 GiB (100%)<br>
Language : English<br>
Encoded date : UTC 2023-05-15 06:55:37<br>
Tagged date : UTC 2023-05-15 06:55:37<br>
Color range : Limited<br>
Color primaries : BT.709<br>
Transfer characteristics : BT.709<br>
Matrix coefficients : BT.709<br>
Codec configuration box : avcC<br>
<br>
<b>Audio</b><br>
ID : 2<br>
Format : AAC LC<br>
Format/Info : Advanced Audio Codec Low Complexity<br>
Codec ID : mp4a-40-2<br>
Duration : 3 min 30 s<br>
Source duration : 3 min 30 s<br>
Bit rate mode : Variable<br>
Bit rate : 317 kb/s<br>
Maximum bit rate : 404 kb/s<br>
Channel(s) : 2 channels<br>
Channel layout : L R<br>
Sampling rate : 48.0 kHz<br>
Frame rate : 46.875 FPS (1024 SPF)<br>
Compression mode : Lossy<br>
Stream size : 7.95 MiB (0%)<br>
Source stream size : 7.95 MiB (0%)<br>
Language : English<br>
Encoded date : UTC 2023-05-15 06:55:37<br>
Tagged date : UTC 2023-05-15 06:55:37</div>
</div><br>
<div class="bbCodeBlock bbCodeVfcHH HiddenContent">
<div class="attribution type">Hidden Content:</div>
<blockquote>You must reply before you can see the hidden data contained here.</blockquote>
</div></div>
<div class="messageTextEndMarker">&nbsp;</div>
</blockquote>
</article>]]></description>
                <author><![CDATA[von_3649]]></author>
                </item>

                
                <item>
                <title><![CDATA[【Requests】[REQ CAP] - URGENT: The Town Festival]]></title>
                <link><![CDATA[https://sharemania.us/threads/urgent-the-town-festival.227546/]]></link>
                <description><![CDATA[<article>
<blockquote class="messageText SelectQuoteContainer ugc baseHtml">
Hi guys! Can someone download those shows in 1080p for me? Even in 720p would be good.<br>
I think they will be available live on <a href="https://globoplay.globo.com/" target="_blank" class="externalLink" rel="nofollow">globoplay</a>.<br>
<br>
At the moment I don't know if Factory Stage is going to be transmitted.<br>
<br>
<span style="color: #0059b3">September 2nd</span><br>
- Factory Stage<br>
<b>Urias 4:00 pm</b><br>
<br>
- Skyline Stage (Multishow)<br>
Iggy Azalea 6:15 pm<br>
<b>Demi Lovato 8:25 pm</b><br>
<br>
<span style="color: #0059b3">September 3rd</span><br>
- Factory Stage<br>
<b>Lia Clark 4:00 pm</b><br>
<br>
- Skyline Stage (Multishow)<br>
<b>Luísa Sonza 4:05 pm</b><br>
Bebe Rexha 8:25 pm<br>
<br>
<span style="color: #0059b3">September 7th</span><br>
- Skyline Stage (Multishow)<br>
Ludmilla 4:05 pm<br>
<br>
<span style="color: #0059b3">September 9th</span><br>
- Factory Stage<br>
Grag Queen 14:00 pm<br>
<br>
<span style="color: #0059b3">September 10th</span><br>
- Skyline Stage (Multishow)<br>
Iza 4:05 pm<br>
<br>
- The One Stage (Multishow)<br>
<b>Marina Sena 3:00 pm<br>
Pabllo Vittar 5:10 pm<br>
Gloria Groove 7:20 pm</b><br>
Jão 9:45 pm
<div class="messageTextEndMarker">&nbsp;</div>
</blockquote>
</article>]]></description>
                <author><![CDATA[vinicixsqs]]></author>
                </item>

                
                <item>
                <title><![CDATA[【Requests】[REQ AUD] - Muni Long - Nobody Knows (Qobuz Hires)]]></title>
                <link><![CDATA[https://sharemania.us/threads/muni-long-nobody-knows-qobuz-hires.227552/]]></link>
                <description><![CDATA[<article>
<blockquote class="messageText SelectQuoteContainer ugc baseHtml">
Here's the link on Qobuz: <a href="https://open.qobuz.com/album/yxjxmd6geprga" target="_blank" class="externalLink" rel="nofollow">https://open.qobuz.com/album/yxjxmd6geprga</a><br>
Thanks so much!!!
<div class="messageTextEndMarker">&nbsp;</div>
</blockquote>
</article>]]></description>
                <author><![CDATA[abdci]]></author>
                </item>

                </channel></rss>